<?xml version="1.0" encoding="UTF-8" standalone="no" ?>
<!DOCTYPE svg PUBLIC "-//W3C//DTD SVG 1.1//EN" "http://www.w3.org/Graphics/SVG/1.1/DTD/svg11.dtd">
<svg xmlns="http://www.w3.org/2000/svg" xmlns:xlink="http://www.w3.org/1999/xlink" version="1.1" width="640" height="640" viewBox="0 0 640 640" xml:space="preserve">
<desc>Created with Fabric.js 5.3.0</desc>
<defs>
</defs>
<g transform="matrix(-1.1398981121 0.4148889829 0.3904512468 1.0727559841 180.9042741976 325.7607716658)" id="1eFEiknOgUoKRDp4z9mvk"  >
<path style="stroke: rgb(0,0,0); stroke-width: 5; stroke-dasharray: none; stroke-linecap: butt; stroke-dashoffset: 0; stroke-linejoin: miter; stroke-miterlimit: 4; fill: rgb(104,53,12); fill-rule: nonzero; opacity: 1;" vector-effect="non-scaling-stroke"  transform=" translate(0, 0)" d="M -96.8546 -101.61809 C -96.8546 -125.73294 -78.45712 -145.2819 -55.76267000000001 -145.2819 L 55.76266999999999 -145.2819 L 55.76266999999999 -145.2819 C 78.45711 -145.2819 96.85459999999999 -125.73295 96.85459999999999 -101.61809000000001 L 96.85459999999999 101.61808999999998 L 96.85459999999999 101.61808999999998 C 96.85459999999999 125.73293999999999 78.45711999999999 145.28189999999998 55.76266999999999 145.28189999999998 L -55.76267000000001 145.28189999999998 L -55.76267000000001 145.28189999999998 C -78.45711 145.28189999999998 -96.8546 125.73294999999997 -96.8546 101.61808999999998 z" stroke-linecap="round" />
</g>
<g transform="matrix(-1.1946252143 0.2106446571 0.1982372933 1.1242595577 254.0670032738 301.0523928395)" id="kEQ3CKDqdmUBpl0PbkyZ5"  >
<path style="stroke: rgb(0,0,0); stroke-width: 4; stroke-dasharray: none; stroke-linecap: butt; stroke-dashoffset: 0; stroke-linejoin: miter; stroke-miterlimit: 4; fill: rgb(38,5,155); fill-rule: nonzero; opacity: 1;" vector-effect="non-scaling-stroke"  transform=" translate(0, 0)" d="M -96.8546 -101.61809 C -96.8546 -125.73294 -78.45712 -145.2819 -55.76267000000001 -145.2819 L 55.76266999999999 -145.2819 L 55.76266999999999 -145.2819 C 78.45711 -145.2819 96.85459999999999 -125.73295 96.85459999999999 -101.61809000000001 L 96.85459999999999 101.61808999999998 L 96.85459999999999 101.61808999999998 C 96.85459999999999 125.73293999999999 78.45711999999999 145.28189999999998 55.76266999999999 145.28189999999998 L -55.76267000000001 145.28189999999998 L -55.76267000000001 145.28189999999998 C -78.45711 145.28189999999998 -96.8546 125.73294999999997 -96.8546 101.61808999999998 z" stroke-linecap="round" />
</g>
<g transform="matrix(-1.2130542338 0 0 1.1416030736 328.3812830432 295.579105083)" id="MImRsp2KrUBsMTjUd2JYv"  >
<path style="stroke: rgb(0,0,0); stroke-width: 4; stroke-dasharray: none; stroke-linecap: butt; stroke-dashoffset: 0; stroke-linejoin: miter; stroke-miterlimit: 4; fill: rgb(250,237,0); fill-rule: nonzero; opacity: 1;" vector-effect="non-scaling-stroke"  transform=" translate(0, 0)" d="M -96.8546 -101.61809 C -96.8546 -125.73294 -78.45712 -145.2819 -55.76267000000001 -145.2819 L 55.76266999999999 -145.2819 L 55.76266999999999 -145.2819 C 78.45711 -145.2819 96.85459999999999 -125.73295 96.85459999999999 -101.61809000000001 L 96.85459999999999 101.61808999999998 L 96.85459999999999 101.61808999999998 C 96.85459999999999 125.73293999999999 78.45711999999999 145.28189999999998 55.76266999999999 145.28189999999998 L -55.76267000000001 145.28189999999998 L -55.76267000000001 145.28189999999998 C -78.45711 145.28189999999998 -96.8546 125.73294999999997 -96.8546 101.61808999999998 z" stroke-linecap="round" />
</g>
<g transform="matrix(-1.1946252143 -0.2106446571 -0.1982372933 1.1242595577 407.3017655854 301.0523928395)" id="wzIl6VVKc4dq5rd5BfCtZ"  >
<path style="stroke: rgb(0,0,0); stroke-width: 4; stroke-dasharray: none; stroke-linecap: butt; stroke-dashoffset: 0; stroke-linejoin: miter; stroke-miterlimit: 4; fill: rgb(224,0,12); fill-rule: nonzero; opacity: 1;" vector-effect="non-scaling-stroke"  transform=" translate(0, 0)" d="M -96.8546 -101.61809 C -96.8546 -125.73294 -78.45712 -145.2819 -55.76267000000001 -145.2819 L 55.76266999999999 -145.2819 L 55.76266999999999 -145.2819 C 78.45711 -145.2819 96.85459999999999 -125.73295 96.85459999999999 -101.61809000000001 L 96.85459999999999 101.61808999999998 L 96.85459999999999 101.61808999999998 C 96.85459999999999 125.73293999999999 78.45711999999999 145.28189999999998 55.76266999999999 145.28189999999998 L -55.76267000000001 145.28189999999998 L -55.76267000000001 145.28189999999998 C -78.45711 145.28189999999998 -96.8546 125.73294999999997 -96.8546 101.61808999999998 z" stroke-linecap="round" />
</g>
<g transform="matrix(-1.1398981121 -0.4148889829 -0.3904512468 1.0727559841 459.7365821845 324.9833820516)" id="i38grB-k36IZV8RowAhss"  >
<path style="stroke: rgb(0,0,0); stroke-width: 4; stroke-dasharray: none; stroke-linecap: butt; stroke-dashoffset: 0; stroke-linejoin: miter; stroke-miterlimit: 4; fill: rgb(255,255,255); fill-rule: nonzero; opacity: 1;" vector-effect="non-scaling-stroke"  transform=" translate(0, 0)" d="M -96.8546 -101.61809 C -96.8546 -125.73294 -78.45712 -145.2819 -55.76267000000001 -145.2819 L 55.76266999999999 -145.2819 L 55.76266999999999 -145.2819 C 78.45711 -145.2819 96.85459999999999 -125.73295 96.85459999999999 -101.61809000000001 L 96.85459999999999 101.61808999999998 L 96.85459999999999 101.61808999999998 C 96.85459999999999 125.73293999999999 78.45711999999999 145.28189999999998 55.76266999999999 145.28189999999998 L -55.76267000000001 145.28189999999998 L -55.76267000000001 145.28189999999998 C -78.45711 145.28189999999998 -96.8546 125.73294999999997 -96.8546 101.61808999999998 z" stroke-linecap="round" />
</g>
</svg>